<?xml version="1.0" encoding="UTF-8" standalone="no"?><svg xmlns="http://www.w3.org/2000/svg" xmlns:xlink="http://www.w3.org/1999/xlink" fill="#cdb8b7" height="112.6" preserveAspectRatio="xMidYMid meet" version="1" viewBox="0.0 0.0 459.6 112.6" width="459.6" zoomAndPan="magnify"><defs><clipPath id="a"><path d="M 0 0 L 459.648438 0 L 459.648438 112.628906 L 0 112.628906 Z M 0 0"/></clipPath></defs><g><g clip-path="url(#a)" id="change1_1"><path d="M 83.3125 110 C 84.054688 109.988281 84.789062 109.9375 85.527344 109.851562 C 86.351562 109.734375 87.167969 109.582031 87.980469 109.386719 C 88.765625 109.175781 89.527344 108.929688 90.289062 108.644531 C 91.066406 108.320312 91.820312 107.960938 92.5625 107.558594 C 93.328125 107.097656 94.0625 106.601562 94.78125 106.078125 C 96.007812 105.140625 97.164062 104.132812 98.28125 103.070312 C 99.625 101.742188 100.890625 100.351562 102.070312 98.878906 C 102.570312 98.21875 103.039062 97.542969 103.472656 96.835938 C 103.933594 96.007812 104.339844 95.160156 104.710938 94.285156 C 104.707031 94.292969 104.703125 94.304688 104.699219 94.3125 C 104.996094 93.558594 105.253906 92.800781 105.484375 92.027344 C 105.878906 90.515625 106.152344 88.988281 106.367188 87.441406 C 106.449219 86.765625 106.527344 86.089844 106.574219 85.410156 C 106.628906 84.640625 106.652344 83.871094 106.65625 83.097656 C 106.632812 81.101562 106.496094 79.113281 106.257812 77.132812 C 105.96875 74.992188 105.585938 72.871094 105.070312 70.773438 C 104.628906 69.152344 104.09375 67.570312 103.472656 66.007812 C 103.492188 66.058594 103.511719 66.113281 103.53125 66.164062 C 103.1875 65.355469 102.820312 64.5625 102.40625 63.78125 C 102.148438 63.335938 101.878906 62.902344 101.589844 62.476562 C 101.042969 62.683594 100.5 62.894531 99.960938 63.109375 C 97.449219 64.132812 94.992188 65.269531 92.617188 66.578125 C 92.621094 66.574219 92.625 66.570312 92.628906 66.570312 C 90.722656 67.640625 88.886719 68.816406 87.121094 70.113281 C 85.40625 71.402344 83.777344 72.796875 82.230469 74.285156 C 80.78125 75.714844 79.429688 77.21875 78.164062 78.808594 C 76.867188 80.484375 75.675781 82.226562 74.601562 84.050781 C 73.742188 85.554688 72.976562 87.09375 72.292969 88.683594 C 72.296875 88.675781 72.296875 88.671875 72.300781 88.664062 C 72.296875 88.671875 72.296875 88.675781 72.292969 88.683594 C 72.273438 88.730469 72.253906 88.777344 72.234375 88.824219 C 72.25 88.785156 72.269531 88.746094 72.285156 88.707031 C 71.886719 89.675781 71.527344 90.648438 71.246094 91.65625 C 71.011719 92.574219 70.835938 93.5 70.707031 94.4375 C 70.632812 95.09375 70.582031 95.75 70.566406 96.410156 C 70.574219 97.0625 70.609375 97.710938 70.675781 98.359375 C 70.78125 99.140625 70.929688 99.902344 71.121094 100.667969 C 71.109375 100.613281 71.09375 100.558594 71.082031 100.503906 C 71.230469 101.015625 71.394531 101.519531 71.582031 102.019531 C 71.820312 102.597656 72.082031 103.15625 72.378906 103.707031 C 72.636719 104.152344 72.914062 104.578125 73.210938 105 C 73.53125 105.410156 73.859375 105.8125 74.210938 106.195312 C 74.566406 106.542969 74.941406 106.871094 75.324219 107.191406 C 75.847656 107.59375 76.390625 107.964844 76.957031 108.308594 C 77.546875 108.644531 78.148438 108.945312 78.773438 109.210938 C 79.148438 109.351562 79.523438 109.472656 79.90625 109.578125 C 80.460938 109.707031 81.011719 109.816406 81.570312 109.902344 C 82.152344 109.960938 82.730469 109.988281 83.3125 110 Z M 78.328125 111.847656 C 77.910156 111.714844 77.503906 111.53125 77.105469 111.347656 C 76.695312 111.15625 76.292969 110.953125 75.902344 110.730469 C 75.105469 110.269531 74.328125 109.773438 73.621094 109.1875 C 72.976562 108.65625 72.359375 108.101562 71.816406 107.460938 C 71.234375 106.777344 70.699219 106.046875 70.25 105.265625 C 69.394531 103.792969 68.78125 102.214844 68.394531 100.558594 C 68.007812 98.90625 67.890625 97.199219 67.96875 95.503906 C 68.007812 94.671875 68.128906 93.835938 68.265625 93.015625 C 68.417969 92.09375 68.636719 91.1875 68.902344 90.296875 C 69.171875 89.398438 69.515625 88.523438 69.878906 87.660156 C 70.296875 86.675781 70.738281 85.707031 71.226562 84.757812 C 74.875 77.664062 80.371094 71.566406 86.914062 67.03125 C 89.949219 64.925781 93.214844 63.183594 96.585938 61.683594 C 97.640625 61.214844 98.707031 60.769531 99.785156 60.347656 C 99.152344 59.738281 98.496094 59.164062 97.808594 58.621094 C 96.894531 57.929688 95.945312 57.292969 94.960938 56.699219 C 93.675781 55.960938 92.351562 55.308594 90.984375 54.730469 C 89.664062 54.199219 88.320312 53.734375 86.945312 53.347656 C 85.988281 53.105469 85.03125 52.917969 84.050781 52.78125 C 82.480469 52.601562 80.90625 52.511719 79.328125 52.5 C 77.707031 52.515625 76.101562 52.648438 74.492188 52.851562 C 74.546875 52.84375 74.601562 52.835938 74.660156 52.832031 C 72.886719 53.074219 71.144531 53.410156 69.40625 53.839844 C 66.222656 54.675781 63.117188 55.761719 60.058594 56.96875 C 55.429688 58.835938 50.921875 60.984375 46.554688 63.40625 C 44.367188 64.640625 42.226562 65.941406 40.128906 67.316406 C 37.761719 68.863281 35.464844 70.523438 33.195312 72.207031 C 33.238281 72.171875 33.285156 72.140625 33.332031 72.105469 C 30.984375 73.867188 28.660156 75.664062 26.40625 77.542969 C 24.09375 79.46875 21.867188 81.492188 19.707031 83.589844 C 19.710938 83.585938 19.710938 83.585938 19.710938 83.582031 C 17.78125 85.488281 15.921875 87.457031 14.121094 89.484375 C 12.328125 91.496094 10.578125 93.546875 8.894531 95.652344 C 8.175781 96.578125 7.464844 97.515625 6.800781 98.484375 C 6.144531 99.445312 5.519531 100.433594 4.921875 101.433594 C 4.710938 101.804688 4.507812 102.175781 4.3125 102.558594 C 4.066406 103.03125 3.863281 103.527344 3.652344 104.019531 C 3.425781 104.589844 3.226562 105.164062 3.054688 105.757812 C 2.90625 106.332031 2.78125 106.914062 2.6875 107.503906 C 2.664062 107.710938 2.644531 107.914062 2.636719 108.121094 C 3.234375 108.21875 3.71875 108.695312 3.757812 109.332031 C 3.800781 110.03125 3.242188 110.703125 2.527344 110.722656 C 2.183594 110.734375 1.847656 110.746094 1.511719 110.644531 C 0.917969 110.472656 0.464844 110.027344 0.222656 109.464844 C -0.0625 108.820312 -0.0234375 108.066406 0.0625 107.382812 C 0.160156 106.5625 0.324219 105.75 0.550781 104.957031 C 0.828125 104.003906 1.1875 103.085938 1.589844 102.179688 C 2.015625 101.222656 2.527344 100.324219 3.0625 99.429688 C 4.21875 97.503906 5.527344 95.660156 6.929688 93.910156 C 8.261719 92.246094 9.640625 90.625 11.035156 89.015625 C 12.546875 87.269531 14.097656 85.5625 15.703125 83.902344 C 18.953125 80.53125 22.425781 77.375 26.0625 74.425781 C 29.554688 71.597656 33.160156 68.902344 36.859375 66.347656 C 40.03125 64.15625 43.332031 62.148438 46.726562 60.316406 C 50.078125 58.507812 53.515625 56.859375 57.027344 55.378906 C 61.269531 53.59375 65.628906 51.984375 70.128906 50.96875 C 72.308594 50.476562 74.53125 50.140625 76.765625 49.972656 C 78.992188 49.800781 81.246094 49.851562 83.46875 50.078125 C 84.503906 50.179688 85.523438 50.332031 86.539062 50.542969 C 87.675781 50.78125 88.789062 51.140625 89.882812 51.507812 C 91.9375 52.199219 93.914062 53.105469 95.804688 54.160156 C 97.59375 55.15625 99.292969 56.34375 100.816406 57.710938 C 101.394531 58.230469 101.945312 58.773438 102.460938 59.351562 C 103.851562 58.863281 105.253906 58.417969 106.667969 58.015625 C 108.96875 57.359375 111.304688 56.875 113.667969 56.527344 C 116.25 56.144531 118.851562 55.921875 121.453125 55.730469 C 124.039062 55.539062 126.632812 55.402344 129.21875 55.230469 C 131.882812 55.054688 134.535156 54.769531 137.183594 54.4375 C 137.128906 54.445312 137.070312 54.453125 137.015625 54.457031 C 144.25 53.527344 151.445312 52.21875 158.515625 50.410156 C 158.480469 50.417969 158.449219 50.425781 158.414062 50.4375 C 160.917969 49.777344 163.414062 49.074219 165.875 48.277344 C 168.261719 47.503906 170.621094 46.652344 172.953125 45.726562 C 176.839844 44.144531 180.617188 42.339844 184.289062 40.300781 C 184.238281 40.328125 184.1875 40.355469 184.140625 40.382812 C 185.921875 39.378906 187.679688 38.324219 189.390625 37.199219 C 191.007812 36.140625 192.582031 35.027344 194.136719 33.878906 C 197.691406 31.214844 201.066406 28.335938 204.332031 25.324219 C 207.324219 22.5625 210.230469 19.710938 213.144531 16.871094 C 215.925781 14.164062 218.742188 11.503906 221.804688 9.113281 C 224.707031 6.847656 227.808594 4.832031 231.09375 3.171875 C 233.875 1.769531 236.851562 0.679688 239.941406 0.210938 C 242.339844 -0.15625 244.867188 -0.0703125 247.15625 0.785156 C 249.046875 1.492188 250.703125 2.828125 251.660156 4.617188 C 251.902344 5.066406 252.058594 5.578125 252.179688 6.074219 C 252.328125 6.664062 252.398438 7.261719 252.4375 7.863281 C 252.523438 9.140625 252.414062 10.433594 252.210938 11.6875 C 251.988281 13.0625 251.628906 14.421875 251.148438 15.730469 C 250.882812 16.445312 250.574219 17.140625 250.230469 17.816406 C 249.738281 18.78125 249.109375 19.671875 248.472656 20.546875 C 247.378906 22.042969 246.144531 23.445312 244.878906 24.800781 C 243.636719 26.128906 242.3125 27.378906 240.972656 28.605469 C 238.332031 31.019531 235.585938 33.320312 232.78125 35.535156 C 229.640625 38.023438 226.421875 40.414062 223.242188 42.855469 C 218.339844 46.625 213.472656 50.476562 209.003906 54.761719 C 208.871094 54.898438 208.738281 55.042969 208.59375 55.164062 C 208.5625 55.195312 208.53125 55.226562 208.5 55.257812 C 208.175781 55.578125 207.855469 55.898438 207.539062 56.222656 C 206.261719 57.535156 205.058594 58.917969 203.925781 60.355469 C 203.136719 61.390625 202.398438 62.449219 201.730469 63.566406 C 201.0625 64.738281 200.472656 65.941406 199.949219 67.183594 C 199.542969 68.210938 199.1875 69.246094 198.890625 70.308594 C 198.679688 71.140625 198.511719 71.980469 198.382812 72.828125 C 198.324219 73.328125 198.285156 73.820312 198.269531 74.320312 C 198.277344 74.953125 198.316406 75.578125 198.386719 76.207031 C 198.4375 76.566406 198.5 76.917969 198.574219 77.273438 C 198.660156 77.597656 198.761719 77.910156 198.878906 78.222656 C 198.980469 78.457031 199.089844 78.679688 199.207031 78.910156 C 199.402344 79.238281 199.609375 79.558594 199.832031 79.871094 C 200.105469 80.210938 200.386719 80.535156 200.683594 80.855469 C 201.363281 81.527344 202.089844 82.148438 202.839844 82.746094 C 203.546875 83.285156 204.261719 83.789062 205.019531 84.25 C 205.9375 84.761719 206.878906 85.21875 207.847656 85.628906 C 208.792969 86.007812 209.75 86.332031 210.730469 86.609375 C 211.667969 86.84375 212.605469 87.035156 213.5625 87.167969 C 214.390625 87.253906 215.214844 87.300781 216.046875 87.308594 C 216.867188 87.292969 217.683594 87.242188 218.5 87.152344 C 219.3125 87.035156 220.113281 86.875 220.914062 86.683594 C 221.71875 86.46875 222.507812 86.222656 223.285156 85.925781 C 224.308594 85.488281 225.292969 84.984375 226.269531 84.449219 C 227.679688 83.640625 229.035156 82.757812 230.34375 81.792969 C 231.773438 80.699219 233.132812 79.523438 234.429688 78.273438 C 236.261719 76.464844 237.953125 74.535156 239.550781 72.515625 C 241.992188 69.359375 244.164062 66.023438 246.1875 62.589844 C 248.410156 58.773438 250.460938 54.863281 252.652344 51.027344 C 254.726562 47.394531 256.9375 43.835938 259.304688 40.386719 C 261.402344 37.332031 263.628906 34.351562 266.136719 31.625 C 268.421875 29.144531 271 26.941406 273.769531 25.023438 C 276.390625 23.210938 279.261719 21.820312 282.28125 20.820312 C 285.179688 19.859375 288.207031 19.300781 291.238281 18.988281 C 296.695312 18.425781 302.21875 19.054688 307.445312 20.691406 C 310.613281 21.683594 313.660156 23.035156 316.71875 24.308594 C 316.699219 24.296875 316.675781 24.289062 316.65625 24.28125 C 319.574219 25.492188 322.503906 26.675781 325.554688 27.511719 C 326.933594 27.875 328.328125 28.175781 329.742188 28.386719 C 329.964844 28.417969 330.203125 28.433594 330.429688 28.484375 C 331.90625 28.675781 333.394531 28.761719 334.882812 28.773438 C 336.675781 28.765625 338.457031 28.644531 340.230469 28.429688 C 342.398438 28.144531 344.535156 27.710938 346.652344 27.167969 C 346.628906 27.175781 346.605469 27.179688 346.582031 27.1875 C 348.246094 26.75 349.898438 26.273438 351.527344 25.714844 C 353.332031 25.09375 355.117188 24.414062 356.890625 23.703125 C 356.855469 23.71875 356.816406 23.734375 356.777344 23.75 C 360.355469 22.304688 363.871094 20.722656 367.359375 19.078125 C 370.816406 17.453125 374.261719 15.792969 377.699219 14.125 C 379.40625 13.296875 381.109375 12.457031 382.835938 11.667969 C 384.546875 10.882812 386.285156 10.167969 388.035156 9.46875 C 392.234375 7.78125 396.484375 6.222656 400.828125 4.945312 C 404.992188 3.722656 409.195312 2.660156 413.457031 1.855469 C 415.425781 1.484375 417.402344 1.179688 419.390625 0.941406 C 421.421875 0.699219 423.476562 0.609375 425.519531 0.59375 C 429.617188 0.554688 433.722656 0.886719 437.785156 1.398438 C 441.300781 1.839844 444.796875 2.449219 448.242188 3.25 C 450.171875 3.695312 452.089844 4.210938 453.964844 4.847656 C 455.652344 5.425781 457.308594 6.109375 458.917969 6.886719 C 459.5625 7.195312 459.828125 8.011719 459.511719 8.644531 C 459.191406 9.292969 458.398438 9.550781 457.753906 9.238281 C 457.050781 8.902344 456.34375 8.582031 455.628906 8.28125 C 453.796875 7.535156 451.921875 6.914062 450.011719 6.394531 C 446.050781 5.351562 442.015625 4.613281 437.957031 4.066406 C 434.078125 3.5625 430.167969 3.242188 426.253906 3.210938 C 426.3125 3.210938 426.367188 3.210938 426.425781 3.210938 C 423.992188 3.214844 421.570312 3.328125 419.152344 3.613281 C 414.871094 4.164062 410.632812 5.035156 406.449219 6.113281 C 406.476562 6.105469 406.503906 6.097656 406.53125 6.089844 C 403.574219 6.863281 400.640625 7.707031 397.738281 8.667969 C 394.789062 9.640625 391.894531 10.753906 389.011719 11.898438 C 389.0625 11.878906 389.113281 11.859375 389.167969 11.839844 C 387.421875 12.539062 385.679688 13.253906 383.964844 14.039062 C 382.242188 14.828125 380.539062 15.667969 378.835938 16.496094 C 375.394531 18.160156 371.949219 19.820312 368.492188 21.449219 C 364.992188 23.105469 361.460938 24.691406 357.867188 26.136719 C 356.042969 26.875 354.203125 27.5625 352.347656 28.207031 C 350.640625 28.804688 348.898438 29.300781 347.148438 29.75 C 344.113281 30.523438 341.027344 31.074219 337.898438 31.296875 C 335.292969 31.480469 332.679688 31.414062 330.089844 31.082031 C 330.035156 31.078125 329.980469 31.074219 329.925781 31.0625 C 329.695312 31.03125 329.460938 31 329.230469 30.964844 C 326.355469 30.53125 323.546875 29.75 320.816406 28.757812 C 319.472656 28.269531 318.144531 27.730469 316.820312 27.1875 C 316.1875 26.925781 315.554688 26.664062 314.921875 26.398438 C 314.605469 26.269531 314.292969 26.136719 313.976562 26.003906 C 313.800781 25.929688 313.613281 25.863281 313.4375 25.78125 C 313.359375 25.75 313.277344 25.710938 313.199219 25.679688 C 312.992188 25.59375 312.78125 25.507812 312.574219 25.421875 C 310.097656 24.398438 307.59375 23.425781 305.007812 22.710938 C 303.355469 22.273438 301.683594 21.941406 299.988281 21.710938 C 298.511719 21.53125 297.03125 21.433594 295.542969 21.414062 C 293.800781 21.410156 292.066406 21.519531 290.335938 21.730469 C 290.390625 21.722656 290.445312 21.714844 290.5 21.707031 C 288.730469 21.933594 286.976562 22.257812 285.246094 22.691406 C 283.824219 23.066406 282.433594 23.515625 281.070312 24.050781 C 279.90625 24.53125 278.78125 25.070312 277.679688 25.675781 C 277.6875 25.671875 277.691406 25.667969 277.699219 25.667969 C 276.394531 26.410156 275.148438 27.238281 273.941406 28.125 C 272.394531 29.292969 270.925781 30.554688 269.535156 31.898438 C 267.925781 33.496094 266.445312 35.203125 265.039062 36.976562 C 261.59375 41.410156 258.542969 46.148438 255.703125 50.988281 C 255.734375 50.9375 255.761719 50.886719 255.792969 50.835938 C 253.570312 54.648438 251.511719 58.554688 249.328125 62.390625 C 247.15625 66.210938 244.816406 69.949219 242.144531 73.441406 C 239.554688 76.832031 236.679688 80.035156 233.375 82.746094 C 231.777344 84.058594 230.085938 85.257812 228.300781 86.304688 C 226.597656 87.304688 224.839844 88.210938 222.960938 88.828125 C 219.535156 89.957031 215.867188 90.191406 212.3125 89.636719 C 210.476562 89.351562 208.675781 88.789062 206.953125 88.097656 C 205.140625 87.375 203.410156 86.441406 201.839844 85.28125 C 200.25 84.105469 198.707031 82.800781 197.546875 81.1875 C 196.539062 79.789062 195.96875 78.175781 195.773438 76.46875 C 195.683594 75.65625 195.632812 74.839844 195.652344 74.023438 C 195.675781 73.105469 195.804688 72.1875 195.976562 71.285156 C 196.347656 69.347656 196.980469 67.488281 197.738281 65.671875 C 199.550781 61.320312 202.535156 57.605469 205.796875 54.25 C 206.117188 53.921875 206.441406 53.601562 206.769531 53.28125 C 206.773438 53.273438 206.78125 53.269531 206.785156 53.261719 C 206.816406 53.230469 206.847656 53.199219 206.882812 53.171875 C 206.929688 53.125 206.976562 53.082031 207.023438 53.039062 C 207.046875 53.011719 207.070312 52.988281 207.097656 52.960938 C 207.394531 52.667969 207.699219 52.382812 208 52.09375 C 208.652344 51.476562 209.316406 50.875 209.984375 50.277344 C 211.324219 49.070312 212.707031 47.902344 214.097656 46.753906 C 217.097656 44.285156 220.164062 41.90625 223.25 39.546875 C 226.460938 37.089844 229.710938 34.675781 232.847656 32.113281 C 235.804688 29.699219 238.710938 27.214844 241.453125 24.550781 C 243.066406 22.945312 244.589844 21.257812 246 19.46875 C 246.601562 18.667969 247.171875 17.855469 247.6875 16.996094 C 247.941406 16.53125 248.175781 16.058594 248.386719 15.578125 C 248.707031 14.785156 248.976562 13.980469 249.210938 13.160156 C 249.410156 12.367188 249.578125 11.570312 249.695312 10.761719 C 249.777344 10.105469 249.824219 9.445312 249.839844 8.785156 C 249.835938 8.34375 249.8125 7.90625 249.773438 7.46875 C 249.734375 7.203125 249.6875 6.9375 249.628906 6.675781 C 249.570312 6.472656 249.507812 6.273438 249.4375 6.074219 C 249.375 5.925781 249.308594 5.785156 249.234375 5.640625 C 249.148438 5.503906 249.058594 5.367188 248.964844 5.230469 C 248.816406 5.046875 248.660156 4.867188 248.496094 4.691406 C 248.324219 4.527344 248.148438 4.367188 247.964844 4.214844 C 247.722656 4.035156 247.472656 3.867188 247.214844 3.710938 C 246.96875 3.574219 246.71875 3.453125 246.464844 3.335938 C 246.121094 3.199219 245.777344 3.082031 245.421875 2.980469 C 245.03125 2.882812 244.640625 2.804688 244.242188 2.742188 C 243.710938 2.679688 243.183594 2.644531 242.648438 2.632812 C 241.992188 2.640625 241.339844 2.683594 240.683594 2.753906 C 239.824219 2.871094 238.980469 3.039062 238.140625 3.253906 C 237.117188 3.53125 236.117188 3.863281 235.128906 4.242188 C 233.535156 4.886719 231.992188 5.632812 230.488281 6.460938 C 228.40625 7.640625 226.410156 8.953125 224.484375 10.371094 C 221.425781 12.671875 218.597656 15.238281 215.847656 17.898438 C 212.953125 20.703125 210.085938 23.527344 207.152344 26.285156 C 203.941406 29.300781 200.632812 32.195312 197.148438 34.886719 C 193.4375 37.761719 189.527344 40.390625 185.421875 42.671875 C 182.148438 44.488281 178.792969 46.128906 175.34375 47.578125 C 171.769531 49.082031 168.113281 50.359375 164.40625 51.484375 C 160.285156 52.734375 156.097656 53.75 151.886719 54.628906 C 147.59375 55.527344 143.273438 56.257812 138.933594 56.851562 C 137.101562 57.101562 135.265625 57.320312 133.425781 57.511719 C 131.347656 57.726562 129.265625 57.863281 127.183594 57.992188 C 123.28125 58.234375 119.382812 58.457031 115.503906 58.925781 C 113.246094 59.214844 111.007812 59.601562 108.796875 60.15625 C 108.851562 60.140625 108.90625 60.128906 108.960938 60.113281 C 107.335938 60.53125 105.730469 61.019531 104.144531 61.558594 C 104.355469 61.886719 104.554688 62.222656 104.734375 62.570312 C 105.644531 64.269531 106.34375 66.058594 106.957031 67.882812 C 107.609375 69.816406 108.03125 71.816406 108.402344 73.820312 C 109.085938 77.53125 109.402344 81.335938 109.230469 85.105469 C 109.148438 86.851562 108.878906 88.597656 108.566406 90.316406 C 108.378906 91.367188 108.109375 92.402344 107.808594 93.425781 C 107.558594 94.265625 107.222656 95.078125 106.886719 95.882812 C 105.503906 99.1875 103.101562 101.9375 100.609375 104.457031 C 99.136719 105.949219 97.539062 107.3125 95.847656 108.550781 C 94.054688 109.867188 92.046875 110.871094 89.933594 111.554688 C 87.96875 112.1875 85.917969 112.535156 83.859375 112.617188 C 83.65625 112.625 83.449219 112.628906 83.242188 112.628906 C 81.574219 112.628906 79.917969 112.355469 78.328125 111.847656"/></g></g></svg>