<?xml version="1.0" encoding="UTF-8"?><svg xmlns="http://www.w3.org/2000/svg" xmlns:xlink="http://www.w3.org/1999/xlink" height="93.5" preserveAspectRatio="xMidYMid meet" version="1.0" viewBox="-0.4 -6.4 104.0 93.5" width="104.0" zoomAndPan="magnify"><g id="change1_1"><path d="M54.9,80.7C45.5,74,36.7,67.3,29.1,58.5C21.7,49.9,16,39.8,12.8,29c-1.3-4.3-2.5-9.1-1.8-13.7 c1.2-7,6.9-4.9,11-1.2c9,8.4,15.5,20.5,20.6,31.6c2.3,5,10.6,1.5,8.9-3.8c0.2,0.7-0.1,0.6,0.1-0.3c0.2-0.8,0.6-1.5,0.9-2.3 c1-2.2,2.4-4.3,3.7-6.4c2.6-4.1,5.3-8,8.3-11.8c4.9-6.4,19.6-18.4,26-7c3.5,6.2-1.1,15.1-4.1,20.6c-4.8,9-11.2,17.4-17.6,25.3 c-5.5,6.7-11.1,13.4-17.4,19.3c-3.2,3,1.6,7.8,4.8,4.8c15.9-14.4,32.6-30.5,41.3-50.5c3.8-8.7,6.1-19.8-0.9-27.5 C85.1-6.4,67.2,2.6,58.2,13.5c-3.9,4.7-7.5,9.8-10.7,15c-2.7,4.3-7.2,10.7-5.4,16.1c3-1.3,6-2.5,8.9-3.8 c-3.6-7.8-7.9-15.1-12.9-22.1c-4.3-6-8.9-12.7-15.3-16.4C16.7-1.2,9-0.9,4.1,4.6c-4,4.5-4.5,11.2-3.9,16.9c1.6,14.4,9,27.9,17.9,39 c8.7,10.8,21.1,21.6,35,24.5C55.8,85.6,57.1,82.3,54.9,80.7L54.9,80.7z" fill="#ff7bac"/></g></svg>