<?xml version="1.0" encoding="UTF-8" standalone="no"?><svg xmlns="http://www.w3.org/2000/svg" xmlns:xlink="http://www.w3.org/1999/xlink" fill="#000000" height="500" preserveAspectRatio="xMidYMid meet" version="1" viewBox="0.0 0.0 500.0 500.0" width="500" zoomAndPan="magnify"><g id="change1_1"><path d="M500,250c0-66.8-26-129.6-73.2-176.8C379.6,26,316.8,0,250,0c-43.1,0-84.5,10.9-121.2,31.2 c-7.1-3.5-9.8-8.3-12.9-19.5c-4.2,15.4-7.7,18.8-23.1,23.1c8.4,2.3,13.3,4.4,16.6,8.4c-9,6.1-17.6,12.9-25.9,20.3 c-5.4-6.3-8.8-15.1-12.6-28.6c-8.3,29.9-15,36.6-44.9,44.9c14.1,3.9,23,7.4,29.4,13.2C19.6,137.2,0,192.1,0,250 c0,66.8,26,129.6,73.2,176.8C120.4,474,183.2,500,250,500c19.4,0,38.5-2.2,57-6.5l0.7,2.9c88.7-20.7,159.6-87.8,185.2-175.3 l-2.8-0.8C496.6,297.7,500,274.1,500,250z M250,498c-66.2,0-128.5-25.8-175.4-72.6C27.8,378.5,2,316.2,2,250 c0-57.4,19.4-111.8,55-155.7c4,4.1,7,9.3,9.6,16.3c-1,1.4-2,2.7-3,4.1l0.8,0.6c0.8-1.2,1.7-2.4,2.6-3.6c1.4,3.8,2.7,8,4,12.9 c8.3-29.9,15-36.6,44.9-44.9c-5.6-1.5-10.4-3-14.5-4.6c1.3-1.1,2.6-2.1,3.9-3.2l-0.6-0.8c-1.4,1.2-2.9,2.3-4.3,3.5 C93.7,72,88.8,69,84.9,64.9c8.2-7.3,16.8-14.1,25.8-20.2c2.1,3.1,3.6,7.2,5.2,13.1c4.2-15.4,7.7-18.8,23.1-23.1 c-3.1-0.9-5.7-1.7-7.9-2.6C167.1,12.5,207.8,2,250,2c66.2,0,128.5,25.8,175.4,72.6C472.2,121.5,498,183.8,498,250 c0,23.9-3.4,47.3-9.9,69.7l-2.9-0.8c-24.7,84.7-93.5,149.7-179.3,169.8l0.7,2.9C288.2,495.8,269.3,498,250,498z M434.9,384.4 l0.8,0.6c-2.3,3.2-4.8,6.4-7.3,9.5l-0.8-0.6C430.1,390.8,432.5,387.6,434.9,384.4z M105.7,428.5c3.1,2.5,6.3,4.9,9.6,7.2l-0.6,0.8 c-3.3-2.3-6.5-4.7-9.6-7.2L105.7,428.5z M447.9,364.3l0.9,0.5c-2,3.4-4.1,6.9-6.3,10.2l-0.8-0.5C443.8,371.2,446,367.7,447.9,364.3z M458.8,343l0.9,0.4c-1.6,3.7-3.4,7.3-5.2,10.9l-0.9-0.5C455.5,350.3,457.2,346.6,458.8,343z M402.9,419.9l0.7,0.7 c-3,2.7-6,5.3-9.1,7.8l-0.6-0.8C396.9,425.1,399.9,422.5,402.9,419.9z M364.3,448l0.5,0.9c-3.4,2-7,3.9-10.5,5.7l-0.5-0.9 C357.3,451.9,360.9,449.9,364.3,448z M384.3,434.9l0.6,0.8c-3.2,2.3-6.6,4.6-9.9,6.8l-0.5-0.8C377.8,439.5,381.1,437.3,384.3,434.9z M419.8,403l0.7,0.7c-2.7,3-5.5,5.9-8.3,8.7l-0.7-0.7C414.4,408.8,417.2,405.9,419.8,403z M478.2,237.5c-0.2-4-0.5-8-1-11.9l1-0.1 c0.4,4,0.7,8,1,12L478.2,237.5z M478.5,249.4h1l0,0.5c0,4-0.1,8-0.3,12l-1-0.1c0.2-4,0.3-8,0.3-12L478.5,249.4z M467.4,320.6 l0.9,0.3c-1.2,3.8-2.6,7.6-4,11.4l-0.9-0.4C464.8,328.2,466.2,324.4,467.4,320.6z M475.7,213.7c-0.6-3.9-1.4-7.9-2.2-11.8l1-0.2 c0.8,3.9,1.6,7.9,2.2,11.8L475.7,213.7z M473.6,297.5l1,0.2c-0.8,3.9-1.8,7.8-2.8,11.7l-1-0.3C471.8,305.3,472.8,301.4,473.6,297.5z M477.3,273.9l1,0.1c-0.4,4-0.9,8-1.6,11.9l-1-0.2C476.4,281.8,476.9,277.8,477.3,273.9z M23.8,226.3l-1-0.1c0.4-4,0.9-8,1.5-11.9 l1,0.1C24.7,218.4,24.2,222.3,23.8,226.3z M27.3,202.6l-1-0.2c0.8-3.9,1.7-7.9,2.6-11.7l1,0.2C29,194.8,28.1,198.7,27.3,202.6z M23,262.2c0.2,4,0.5,8,0.9,11.9l-1,0.1c-0.4-4-0.7-8-0.9-12L23,262.2z M33.1,179.4l-1-0.3c1.2-3.8,2.4-7.7,3.8-11.4l0.9,0.3 C35.6,171.8,34.3,175.6,33.1,179.4z M22.7,250.2h-1V250c0-3.9,0.1-7.9,0.3-11.8l1,0c-0.2,3.9-0.3,7.9-0.3,11.8V250.2z M41.3,156.9 l-0.9-0.4c1.6-3.7,3.2-7.4,5-10.9l0.9,0.4C44.5,149.6,42.8,153.3,41.3,156.9z M51.7,135.5l-0.9-0.5c1.9-3.5,4-7,6.1-10.3l0.8,0.5 C55.7,128.5,53.7,132,51.7,135.5z M25.3,286c0.6,3.9,1.3,7.9,2.1,11.8l-1,0.2c-0.8-3.9-1.5-7.9-2.1-11.8L25.3,286z M46.4,354.3 c1.7,3.6,3.6,7.1,5.5,10.6l-0.9,0.5c-1.9-3.5-3.8-7.1-5.6-10.7L46.4,354.3z M87.9,412.6c2.8,2.8,5.7,5.6,8.7,8.2l-0.7,0.7 c-3-2.7-5.9-5.4-8.7-8.2L87.9,412.6z M470.7,190.3c-1-3.8-2.2-7.7-3.4-11.5l0.9-0.3c1.2,3.8,2.4,7.7,3.4,11.5L470.7,190.3z M58.1,375.2c2.1,3.4,4.4,6.7,6.7,10l-0.8,0.6c-2.3-3.3-4.6-6.6-6.7-10L58.1,375.2z M37.1,332.3c1.4,3.7,2.8,7.5,4.4,11.1l-0.9,0.4 c-1.6-3.7-3-7.4-4.4-11.2L37.1,332.3z M30,309.4c1,3.9,2.1,7.7,3.2,11.5l-1,0.3c-1.2-3.8-2.3-7.7-3.2-11.6L30,309.4z M71.9,394.8 c2.5,3.1,5.1,6.2,7.7,9.1l-0.7,0.7c-2.7-3-5.3-6.1-7.8-9.2L71.9,394.8z M191,470.2c3.8,1,7.7,1.9,11.7,2.7l-0.2,1 c-3.9-0.8-7.9-1.7-11.7-2.7L191,470.2z M213.7,24.1l0.2,1c-3.9,0.6-7.9,1.4-11.8,2.2l-0.2-1C205.8,25.5,209.8,24.7,213.7,24.1z M190.2,29l0.2,1c-3.9,1-7.7,2.1-11.5,3.3l-0.3-1C182.5,31.1,186.3,30,190.2,29z M146.1,453.9c3.6,1.7,7.2,3.4,10.9,4.9l-0.4,0.9 c-3.7-1.6-7.4-3.2-10.9-4.9L146.1,453.9z M168.2,463.1c3.7,1.3,7.5,2.6,11.3,3.8l-0.3,1c-3.8-1.2-7.7-2.5-11.4-3.8L168.2,463.1z M214.4,475c3.9,0.6,7.9,1.2,11.8,1.7l-0.1,1c-4-0.5-8-1-11.9-1.7L214.4,475z M167.3,36.1l0.3,0.9c-3.7,1.4-7.5,2.8-11.1,4.4 l-0.4-0.9C159.8,39,163.5,37.5,167.3,36.1z M273.6,21.7c4,0.4,8,0.9,11.9,1.5l-0.2,1c-3.9-0.6-7.9-1.1-11.9-1.5L273.6,21.7z M145.2,45.5l0.4,0.9c-3.6,1.7-7.2,3.6-10.6,5.5l-0.5-0.9C138,49.1,141.6,47.2,145.2,45.5z M274,477.3l0.1,1c-4,0.4-8,0.7-12,0.9 l-0.1-1C266.1,478,270.1,477.7,274,477.3z M463.2,167.6c-1.4-3.7-3-7.4-4.6-11l0.9-0.4c1.6,3.6,3.2,7.4,4.6,11.1L463.2,167.6z M237.6,21.2l0.1,1c-4,0.3-8,0.7-11.9,1.2l-0.1-1C229.5,21.9,233.6,21.5,237.6,21.2z M250,478.5l0.1,0v1l-0.1,0 c-4-0.2-8-0.4-11.9-0.7l0.1-1C242.1,478.1,246,478.4,250,478.5z M250,20.5c3.9,0,7.7,0.1,11.6,0.3l0,1c-3.8-0.2-7.7-0.3-11.5-0.3 l-0.4,0l0-1L250,20.5C250,20.5,250,20.5,250,20.5z M297.6,473.6l0.2,1c-3.9,0.8-7.9,1.6-11.8,2.2l-0.2-1 C289.8,475.1,293.7,474.4,297.6,473.6z M374.2,58.1c-3.3-2.2-6.8-4.3-10.2-6.2l0.5-0.9c3.5,2,6.9,4.1,10.3,6.3L374.2,58.1z M427.4,105.9c-2.5-3.1-5.1-6.1-7.8-9.1l0.7-0.7c2.7,3,5.3,6,7.8,9.1L427.4,105.9z M393.5,72.1c-3.1-2.5-6.3-4.9-9.5-7.3l0.6-0.8 c3.2,2.3,6.4,4.8,9.5,7.3L393.5,72.1z M411.3,88.1c-2.8-2.8-5.7-5.6-8.7-8.2l0.7-0.7c3,2.7,5.9,5.4,8.7,8.3L411.3,88.1z M453.5,145.8c-1.8-3.5-3.7-7.1-5.7-10.5l0.9-0.5c2,3.4,3.9,7,5.8,10.5L453.5,145.8z M441.5,125.2c-2.2-3.3-4.5-6.6-6.8-9.8l0.8-0.6 c2.3,3.2,4.6,6.5,6.8,9.9L441.5,125.2z M124.7,58c-3.4,2.1-6.7,4.4-9.9,6.7l-0.6-0.8c3.2-2.3,6.6-4.6,10-6.7L124.7,58z M353.4,46.1 c-3.5-1.8-7.2-3.5-10.8-5.1l0.4-0.9c3.7,1.6,7.3,3.4,10.9,5.2L353.4,46.1z M125.2,442.3c3.3,2.1,6.8,4.1,10.3,6.1l-0.5,0.9 c-3.5-1.9-7-4-10.4-6.1L125.2,442.3z M309.5,471.7l-0.3-1c3.8-1,7.7-2.2,11.5-3.4l0.3,0.9C317.2,469.6,313.4,470.7,309.5,471.7z M308.7,29.1c-3.8-1-7.8-1.9-11.6-2.8l0.2-1c3.9,0.8,7.8,1.7,11.7,2.8L308.7,29.1z M332.4,464.3l-0.4-0.9c3.7-1.4,7.4-3,11-4.6 l0.4,0.9C339.8,461.3,336.1,462.9,332.4,464.3z M331.5,36.4c-3.7-1.4-7.5-2.8-11.3-4l0.3-0.9c3.8,1.2,7.6,2.6,11.4,4L331.5,36.4z" fill="#ff7bac"/></g></svg>